<svg width="215" height="215" viewBox="0 0 215 215" fill="none" xmlns="http://www.w3.org/2000/svg">
<circle cx="107.5" cy="107.5" r="107.5" fill="#130F13"/>
<path d="M75.2 70.6C84.2 70.6 91.6333 72.9667 97.5 77.7C103.433 82.4333 107.267 88.8333 109 96.9H90.9C89.5667 93.6333 87.5 91.0667 84.7 89.2C81.9667 87.3333 78.7 86.4 74.9 86.4C69.9 86.4 65.8667 88.2333 62.8 91.9C59.7333 95.5667 58.2 100.467 58.2 106.6C58.2 112.733 59.7333 117.633 62.8 121.3C65.8667 124.9 69.9 126.7 74.9 126.7C78.7 126.7 81.9667 125.767 84.7 123.9C87.5 122.033 89.5667 119.5 90.9 116.3H109C107.267 124.3 103.433 130.7 97.5 135.5C91.6333 140.233 84.2 142.6 75.2 142.6C68.3333 142.6 62.3 141.1 57.1 138.1C51.9 135.033 47.8667 130.767 45 125.3C42.2 119.833 40.8 113.6 40.8 106.6C40.8 99.6 42.2 93.3667 45 87.9C47.8667 82.4333 51.9 78.2 57.1 75.2C62.3 72.1333 68.3333 70.6 75.2 70.6ZM150.184 127.3V142H142.484C135.95 142 130.85 140.4 127.184 137.2C123.584 133.933 121.784 128.567 121.784 121.1V100.6H114.284V86.2H121.784V72.5H138.884V86.2H150.084V100.6H138.884V121.4C138.884 123.6 139.317 125.133 140.184 126C141.117 126.867 142.65 127.3 144.784 127.3H150.184ZM174.495 124.9V142H156.795V124.9H174.495Z" fill="#CC16EC"/>
</svg>
